<mxfile host="app.diagrams.net" modified="2023-07-05T10:48:06.944Z" agent="5.0 (Windows)" version="20.7.4" etag="vAeJDhk1UsrlWi5Nr-Tu" type="github">
  <diagram id="DQqvc7xGPJHcMbatQZce" name="Page-1">
    <mxGraphModel dx="1434" dy="774" grid="1" gridSize="10" guides="1" tooltips="1" connect="1" arrows="1" fold="1" page="1" pageScale="1" pageWidth="1100" pageHeight="850" math="0" shadow="0">
      <root>
        <mxCell id="0" />
        <mxCell id="1" parent="0" />
        <mxCell id="ol0iWD4KZcuWYdtjdaJJ-5" style="edgeStyle=orthogonalEdgeStyle;rounded=0;orthogonalLoop=1;jettySize=auto;html=1;exitX=0.5;exitY=0;exitDx=0;exitDy=0;entryX=0.5;entryY=0;entryDx=0;entryDy=0;" edge="1" parent="1" source="ol0iWD4KZcuWYdtjdaJJ-1" target="ol0iWD4KZcuWYdtjdaJJ-2">
          <mxGeometry relative="1" as="geometry" />
        </mxCell>
        <mxCell id="ol0iWD4KZcuWYdtjdaJJ-7" value="laporan" style="edgeLabel;html=1;align=center;verticalAlign=middle;resizable=0;points=[];" vertex="1" connectable="0" parent="ol0iWD4KZcuWYdtjdaJJ-5">
          <mxGeometry x="-0.0489" y="-2" relative="1" as="geometry">
            <mxPoint as="offset" />
          </mxGeometry>
        </mxCell>
        <mxCell id="ol0iWD4KZcuWYdtjdaJJ-1" value="Sistem Monitoring Barang Habis Pakai" style="ellipse;whiteSpace=wrap;html=1;aspect=fixed;" vertex="1" parent="1">
          <mxGeometry x="340" y="280" width="160" height="160" as="geometry" />
        </mxCell>
        <mxCell id="ol0iWD4KZcuWYdtjdaJJ-6" style="edgeStyle=orthogonalEdgeStyle;rounded=0;orthogonalLoop=1;jettySize=auto;html=1;exitX=0.5;exitY=1;exitDx=0;exitDy=0;entryX=0.5;entryY=1;entryDx=0;entryDy=0;" edge="1" parent="1" source="ol0iWD4KZcuWYdtjdaJJ-2" target="ol0iWD4KZcuWYdtjdaJJ-1">
          <mxGeometry relative="1" as="geometry" />
        </mxCell>
        <mxCell id="ol0iWD4KZcuWYdtjdaJJ-9" value="&lt;div&gt;data_barang&lt;/div&gt;&lt;div&gt;data_lokasi&lt;/div&gt;&lt;div&gt;data_supplier&lt;br&gt;&lt;/div&gt;" style="edgeLabel;html=1;align=center;verticalAlign=middle;resizable=0;points=[];" vertex="1" connectable="0" parent="ol0iWD4KZcuWYdtjdaJJ-6">
          <mxGeometry x="0.0311" y="1" relative="1" as="geometry">
            <mxPoint as="offset" />
          </mxGeometry>
        </mxCell>
        <mxCell id="ol0iWD4KZcuWYdtjdaJJ-2" value="Staff Gudang" style="rounded=0;whiteSpace=wrap;html=1;" vertex="1" parent="1">
          <mxGeometry x="720" y="330" width="120" height="60" as="geometry" />
        </mxCell>
      </root>
    </mxGraphModel>
  </diagram>
</mxfile>
